<svg width="512" height="148" viewBox="0 0 512 148" fill="none" xmlns="http://www.w3.org/2000/svg">
<g clip-path="url(#clip0_201_12)">
<path d="M2.59967 35.5746H17.5136V117.67H2.59967V35.5746Z" fill="black"/>
<path d="M102.14 40.0214C108.335 43.4581 113.452 48.551 116.917 54.7301C120.575 61.4369 122.415 68.9842 122.253 76.6221C122.399 84.2583 120.561 91.8016 116.917 98.5142C113.495 104.743 108.369 109.869 102.14 113.291C95.6094 116.887 88.2488 118.703 80.7953 118.559C75.203 118.645 69.6626 117.476 64.5815 115.138C59.7022 112.899 55.4321 109.52 52.1304 105.287V147.703H37.2165V35.5746H51.5147V48.573C54.7009 44.0829 59.0209 40.5183 64.0342 38.2426C69.3015 35.8759 75.0212 34.6853 80.7953 34.7536C88.2449 34.6442 95.5968 36.4586 102.14 40.0214V40.0214ZM93.7253 101.935C97.9068 99.484 101.337 95.935 103.645 91.6729C106.116 87.0467 107.364 81.866 107.271 76.6221C107.352 71.3796 106.105 66.2018 103.645 61.5714C101.362 57.3087 97.9243 53.7758 93.7253 51.3779C89.3963 48.9834 84.5098 47.7795 79.5639 47.8888C74.6419 47.8365 69.7968 49.1128 65.5393 51.5831C61.3814 53.9425 57.9503 57.3973 55.6195 61.5714C53.1103 66.1829 51.8598 71.3739 51.9936 76.6221C51.8794 81.86 53.1039 87.0404 55.5511 91.6729C57.7985 95.9788 61.2436 99.5427 65.4709 101.935C69.8 104.312 74.6591 105.559 79.5981 105.559C84.5371 105.559 89.3962 104.312 93.7253 101.935V101.935Z" fill="black"/>
<path d="M147.087 115.891C141.839 114.558 136.893 112.236 132.515 109.05L138.672 97.2827C142.69 100.073 147.156 102.155 151.876 103.44C156.953 104.99 162.234 105.774 167.543 105.766C180.541 105.766 187.04 102.072 187.04 94.6146C187.096 93.5551 186.916 92.4964 186.514 91.5146C186.112 90.5329 185.497 89.6523 184.714 88.9364C182.71 87.3694 180.367 86.2918 177.873 85.7894C175.273 85.1053 171.51 84.3527 166.653 83.5318C161.181 82.673 155.783 81.3922 150.508 79.7007C146.4 78.3784 142.702 76.0226 139.767 72.8594C138.149 70.9893 136.917 68.8176 136.142 66.4693C135.367 64.121 135.065 61.6426 135.252 59.1769C135.189 55.6606 136.008 52.1847 137.633 49.0659C139.258 45.947 141.638 43.2846 144.556 41.3212C151.938 36.438 160.687 34.041 169.526 34.4799C175.063 34.4877 180.577 35.177 185.946 36.5323C190.778 37.5518 195.403 39.3789 199.628 41.9369L192.924 53.9775C185.812 49.5461 177.561 47.2873 169.184 47.4783C164.204 47.1757 159.236 48.2403 154.818 50.5569C153.322 51.3472 152.068 52.5276 151.189 53.9729C150.309 55.4183 149.838 57.0747 149.824 58.7664C149.772 59.971 149.999 61.1711 150.485 62.2743C150.971 63.3775 151.705 64.3541 152.629 65.1288C154.633 66.7535 156.968 67.9209 159.47 68.5494C162.206 69.2336 166.311 70.1229 171.032 71.0123C176.438 71.8855 181.785 73.0965 187.04 74.6382C191.084 75.9298 194.701 78.2942 197.507 81.4794C200.575 85.0894 202.121 89.75 201.817 94.4778C201.886 97.999 201.047 101.479 199.381 104.582C197.716 107.685 195.28 110.307 192.308 112.197C184.561 117.058 175.517 119.444 166.379 119.038C159.833 118.901 153.338 117.842 147.087 115.891V115.891Z" fill="black"/>
<path d="M297.937 35.5745V117.67H283.707V104.603C280.465 109.084 276.132 112.663 271.119 115.002C265.892 117.423 260.187 118.639 254.427 118.559C246.951 118.702 239.569 116.886 233.013 113.291C226.784 109.869 221.659 104.743 218.236 98.5141C214.593 91.8016 212.754 84.2583 212.9 76.6221C212.738 68.9842 214.578 61.4369 218.236 54.7301C221.702 48.551 226.818 43.4581 233.013 40.0214C239.581 36.4587 246.955 34.6447 254.427 34.7536C260.029 34.7211 265.575 35.863 270.709 38.1058C275.6 40.2622 279.862 43.629 283.091 47.8888V35.5745H297.937ZM269.751 101.935C273.964 99.5243 277.404 95.9652 279.671 91.6729C282.118 87.0404 283.342 81.86 283.228 76.6221C283.33 71.3855 282.107 66.2081 279.671 61.5713C277.418 57.3043 273.971 53.7859 269.751 51.4463C265.444 49.0517 260.585 47.8253 255.658 47.8888C250.7 47.8212 245.812 49.0725 241.497 51.5147C237.3 53.8546 233.859 57.3434 231.577 61.5713C229.074 66.21 227.824 71.4212 227.951 76.6905C227.827 81.9378 229.077 87.1263 231.577 91.7413C233.864 96.0182 237.3 99.5721 241.497 102.003C245.812 104.445 250.7 105.697 255.658 105.629C260.598 105.651 265.457 104.377 269.751 101.935V101.935Z" fill="black"/>
<path d="M362.587 112.812C360.25 114.793 357.523 116.262 354.583 117.122C351.364 118.086 348.022 118.57 344.663 118.559C341.164 118.759 337.661 118.256 334.359 117.081C331.058 115.906 328.025 114.083 325.439 111.718C323.061 109.168 321.229 106.16 320.052 102.879C318.876 99.5971 318.381 96.1101 318.598 92.6307V17.3768H333.511V35.5746H357.045V47.8888H333.785V92.357C333.526 96.0834 334.728 99.7641 337.137 102.619C338.373 103.861 339.862 104.822 341.504 105.436C343.145 106.05 344.899 106.302 346.647 106.176C350.861 106.285 354.979 104.904 358.277 102.277L362.587 112.812Z" fill="black"/>
<path d="M10.0567 20.1133C15.6108 20.1133 20.1133 15.6108 20.1133 10.0567C20.1133 4.50252 15.6108 0 10.0567 0C4.50252 0 0 4.50252 0 10.0567C0 15.6108 4.50252 20.1133 10.0567 20.1133Z" fill="#E94435"/>
<path d="M403.634 102.619C401.035 99.9508 368.47 65.8813 375.38 66.9759C382.29 68.0705 401.993 83.3266 401.993 83.3266C401.993 83.3266 427.989 64.0342 444.682 53.2934C441.25 47.8552 436.556 43.3257 431 40.0898C424.21 36.586 416.68 34.7577 409.039 34.7577C401.398 34.7577 393.869 36.586 387.079 40.0898C380.677 43.4305 375.343 48.5035 371.686 54.7301C367.953 61.314 366.063 68.7816 366.213 76.3485C366.065 83.8934 367.956 91.3384 371.686 97.8984C375.284 104.21 380.566 109.397 386.942 112.881C393.718 116.429 401.253 118.282 408.902 118.282C416.551 118.282 424.086 116.429 430.863 112.881C437.19 109.356 442.439 104.177 446.05 97.8984C449.705 91.4076 451.593 84.071 451.523 76.6221C451.585 70.9335 450.54 65.2871 448.445 59.9979C432.368 76.6221 403.634 102.619 403.634 102.619Z" fill="#E94435"/>
<path d="M493.529 38.5163C499.31 35.8461 505.634 34.5579 512 34.7536V49.1887C510.861 49.1067 509.718 49.1067 508.579 49.1887C505.084 49.0022 501.589 49.5445 498.315 50.7812C495.041 52.0178 492.06 53.9217 489.561 56.372C484.674 62.0497 482.217 69.4217 482.719 76.8958V117.943H467.805V35.5746H482.104V49.2571C484.664 44.5459 488.669 40.781 493.529 38.5163V38.5163Z" fill="black"/>
</g>
<defs>
<clipPath id="clip0_201_12">
<rect width="512" height="147.703" fill="white"/>
</clipPath>
</defs>
</svg>
